<svg width="46" height="47" viewBox="0 0 46 47" fill="none" xmlns="http://www.w3.org/2000/svg">
<path d="M11.4999 13.9167H21.0833C21.5916 13.9167 22.0791 14.1186 22.4385 14.4781C22.798 14.8375 22.9999 15.325 22.9999 15.8333C22.9999 16.3417 22.798 16.8292 22.4385 17.1886C22.0791 17.5481 21.5916 17.75 21.0833 17.75H11.4999C10.9916 17.75 10.5041 17.5481 10.1446 17.1886C9.78519 16.8292 9.58325 16.3417 9.58325 15.8333C9.58325 15.325 9.78519 14.8375 10.1446 14.4781C10.5041 14.1186 10.9916 13.9167 11.4999 13.9167ZM24.9166 29.25H34.4999C35.0083 29.25 35.4958 29.452 35.8552 29.8114C36.2147 30.1708 36.4166 30.6584 36.4166 31.1667C36.4166 31.675 36.2147 32.1625 35.8552 32.522C35.4958 32.8814 35.0083 33.0834 34.4999 33.0834H24.9166C24.4083 33.0834 23.9207 32.8814 23.5613 32.522C23.2019 32.1625 22.9999 31.675 22.9999 31.1667C22.9999 30.6584 23.2019 30.1708 23.5613 29.8114C23.9207 29.452 24.4083 29.25 24.9166 29.25ZM11.4999 21.5833H34.4999C35.0083 21.5833 35.4958 21.7853 35.8552 22.1447C36.2147 22.5042 36.4166 22.9917 36.4166 23.5C36.4166 24.0083 36.2147 24.4959 35.8552 24.8553C35.4958 25.2147 35.0083 25.4167 34.4999 25.4167H11.4999C10.9916 25.4167 10.5041 25.2147 10.1446 24.8553C9.78519 24.4959 9.58325 24.0083 9.58325 23.5C9.58325 22.9917 9.78519 22.5042 10.1446 22.1447C10.5041 21.7853 10.9916 21.5833 11.4999 21.5833Z" fill="white"/>
</svg>
