<svg width="76" height="76" viewBox="0 0 76 76" fill="none" xmlns="http://www.w3.org/2000/svg">
<path d="M24.875 6.75H51.125C61.125 6.75 69.25 14.875 69.25 24.875V51.125C69.25 55.9321 67.3404 60.5422 63.9413 63.9413C60.5422 67.3404 55.9321 69.25 51.125 69.25H24.875C14.875 69.25 6.75 61.125 6.75 51.125V24.875C6.75 20.068 8.65959 15.4578 12.0587 12.0587C15.4578 8.65959 20.068 6.75 24.875 6.75ZM24.25 13C21.2663 13 18.4048 14.1853 16.295 16.295C14.1853 18.4048 13 21.2663 13 24.25V51.75C13 57.9688 18.0312 63 24.25 63H51.75C54.7337 63 57.5952 61.8147 59.705 59.705C61.8147 57.5952 63 54.7337 63 51.75V24.25C63 18.0312 57.9688 13 51.75 13H24.25ZM54.4062 17.6875C55.4423 17.6875 56.4358 18.0991 57.1684 18.8316C57.901 19.5642 58.3125 20.5577 58.3125 21.5938C58.3125 22.6298 57.901 23.6233 57.1684 24.3559C56.4358 25.0884 55.4423 25.5 54.4062 25.5C53.3702 25.5 52.3767 25.0884 51.6441 24.3559C50.9115 23.6233 50.5 22.6298 50.5 21.5938C50.5 20.5577 50.9115 19.5642 51.6441 18.8316C52.3767 18.0991 53.3702 17.6875 54.4062 17.6875ZM38 22.375C42.144 22.375 46.1183 24.0212 49.0485 26.9515C51.9788 29.8817 53.625 33.856 53.625 38C53.625 42.144 51.9788 46.1183 49.0485 49.0485C46.1183 51.9788 42.144 53.625 38 53.625C33.856 53.625 29.8817 51.9788 26.9515 49.0485C24.0212 46.1183 22.375 42.144 22.375 38C22.375 33.856 24.0212 29.8817 26.9515 26.9515C29.8817 24.0212 33.856 22.375 38 22.375ZM38 28.625C35.5136 28.625 33.129 29.6127 31.3709 31.3709C29.6127 33.129 28.625 35.5136 28.625 38C28.625 40.4864 29.6127 42.871 31.3709 44.6291C33.129 46.3873 35.5136 47.375 38 47.375C40.4864 47.375 42.871 46.3873 44.6291 44.6291C46.3873 42.871 47.375 40.4864 47.375 38C47.375 35.5136 46.3873 33.129 44.6291 31.3709C42.871 29.6127 40.4864 28.625 38 28.625Z" fill="black"/>
</svg>
