<svg width="40" height="41" viewBox="0 0 40 41" fill="none" xmlns="http://www.w3.org/2000/svg">
<path d="M16.6668 3.83333C14.5811 3.83444 12.5247 4.32485 10.6629 5.26514C8.8012 6.20543 7.18602 7.56937 5.94721 9.24734C4.70839 10.9253 3.88051 12.8705 3.5301 14.9266C3.17968 16.9827 3.31651 19.0923 3.92959 21.0858C4.54266 23.0794 5.61488 24.9014 7.06007 26.4053C8.50525 27.9092 10.2831 29.053 12.2507 29.7449C14.2183 30.4369 16.3208 30.6575 18.3892 30.3892C20.4576 30.1209 22.4342 29.3711 24.1601 28.2L32.4001 36.4333C32.629 36.679 32.905 36.876 33.2117 37.0126C33.5183 37.1492 33.8494 37.2227 34.185 37.2286C34.5207 37.2346 34.8541 37.1728 35.1654 37.0471C35.4767 36.9213 35.7595 36.7342 35.9969 36.4968C36.2343 36.2594 36.4215 35.9766 36.5472 35.6653C36.6729 35.354 36.7347 35.0206 36.7288 34.6849C36.7228 34.3492 36.6494 34.0182 36.5127 33.7115C36.3761 33.4049 36.1791 33.1289 35.9334 32.9L27.7001 24.66C29.0622 22.6553 29.8521 20.3172 29.9849 17.8971C30.1177 15.4771 29.5883 13.0666 28.4537 10.9249C27.3191 8.78315 25.6222 6.99121 23.5454 5.74172C21.4686 4.49223 19.0905 3.83245 16.6668 3.83333ZM8.33345 17.1667C8.33345 14.9565 9.21142 12.8369 10.7742 11.2741C12.337 9.7113 14.4566 8.83333 16.6668 8.83333C18.8769 8.83333 20.9965 9.7113 22.5593 11.2741C24.1221 12.8369 25.0001 14.9565 25.0001 17.1667C25.0001 19.3768 24.1221 21.4964 22.5593 23.0592C20.9965 24.622 18.8769 25.5 16.6668 25.5C14.4566 25.5 12.337 24.622 10.7742 23.0592C9.21142 21.4964 8.33345 19.3768 8.33345 17.1667Z" fill="white"/>
</svg>
